<svg width="37" height="46" viewBox="0 0 37 46" fill="none" xmlns="http://www.w3.org/2000/svg">
<path d="M7.3008 9.6245C7.61671 8.81138 13.5564 3.89715 16.0299 6.7503C18.5033 9.60345 17.5202 14.5213 16.0299 16.0116C14.5395 17.5019 13.8965 16.2651 13.7944 18.9923C14.8722 24.5754 19.2234 30.702 21.1396 30.702C23.0557 30.702 22.8278 29.3762 24.1202 29.1052C27.6281 28.3698 31.359 31.6601 31.359 34.7472C31.359 37.8343 25.3976 39.644 25.3976 39.644C19.3321 41.4418 -0.000101089 16.9175 7.3008 9.6245Z" stroke="white" stroke-width="1.49033"/>
<g filter="url(#filter0_f_14_814)">
<path d="M7.3008 9.6245C7.61671 8.81138 13.5564 3.89715 16.0299 6.7503C18.5033 9.60345 17.5202 14.5213 16.0299 16.0116C14.5395 17.5019 13.8965 16.2651 13.7944 18.9923C14.8722 24.5754 19.2234 30.702 21.1396 30.702C23.0557 30.702 22.8278 29.3762 24.1202 29.1052C27.6281 28.3698 31.359 31.6601 31.359 34.7472C31.359 37.8343 25.3976 39.644 25.3976 39.644C19.3321 41.4418 -0.000101089 16.9175 7.3008 9.6245Z" stroke="white" stroke-width="1.49033"/>
</g>
<defs>
<filter id="filter0_f_14_814" x="0.229342" y="0.420627" width="36.5778" height="44.7656" filterUnits="userSpaceOnUse" color-interpolation-filters="sRGB">
<feFlood flood-opacity="0" result="BackgroundImageFix"/>
<feBlend mode="normal" in="SourceGraphic" in2="BackgroundImageFix" result="shape"/>
<feGaussianBlur stdDeviation="2.35152" result="effect1_foregroundBlur_14_814"/>
</filter>
</defs>
</svg>
